<svg width="24" height="24" viewBox="0 0 24 24" fill="none" xmlns="http://www.w3.org/2000/svg">
<path d="M10.5174 15.7525L9.66694 20.812M3.98344 13.807C7.57194 9.61349 12.9774 14.348 9.29194 18.457C5.70394 22.6505 0.298445 17.916 3.98344 13.807ZM14.7079 13.83C18.2959 9.63649 23.7014 14.3715 20.0164 18.4805C16.4279 22.674 11.0229 17.9385 14.7079 13.83ZM16.9369 4.57099C18.7574 4.54449 18.7574 7.40399 16.9369 7.37699C15.1169 7.40349 15.1169 4.54399 16.9369 4.57099Z" stroke="white" stroke-width="1.5" stroke-linecap="round" stroke-linejoin="round"/>
<path d="M11.9629 15.8375C12.8139 12.041 12.9644 11.304 8.98644 10.268C8.47644 10.1405 7.28644 9.84305 7.49844 8.99255C8.65594 6.93155 10.7799 6.41705 12.7279 5.63355C15.7974 4.64855 14.0139 9.91855 17.8299 10.8635M9.30844 5.74505C5.53094 8.23655 6.98594 3.56005 10.1349 3.21105C10.9299 3.12255 12.4469 3.25455 12.0899 4.27355C11.8994 4.81855 10.4289 5.00605 9.30844 5.74505Z" stroke="white" stroke-width="1.5" stroke-linecap="round" stroke-linejoin="round"/>
<path d="M9.58206 10.3105C9.53956 10.3105 11.6226 7.67454 14.9816 7.46204" stroke="white" stroke-width="1.5" stroke-linecap="round" stroke-linejoin="round"/>
</svg>
