<svg width="30" height="30" viewBox="0 0 30 30" fill="none" xmlns="http://www.w3.org/2000/svg">
<path fill-rule="evenodd" clip-rule="evenodd" d="M26.2295 5.99999V6.75H3.77102V3C3.77102 1.34315 5.11416 0 6.77102 0H11.9496C12.651 0 13.3303 0.24578 13.8693 0.694622L15.8037 2.30537C16.3427 2.75421 17.0219 2.99999 17.7234 2.99999H23.2295C24.8863 2.99999 26.2295 4.34314 26.2295 5.99999ZM27.9994 9.00015H2.00068C0.738179 9.00015 -0.208501 10.1555 0.0397186 11.3934L3.12639 26.7865C3.50112 28.6553 5.14235 30.0001 7.04832 30.0001H22.9517C24.8577 30.0001 26.4989 28.6553 26.8736 26.7865L29.9603 11.3934C30.2085 10.1555 29.2619 9.00015 27.9994 9.00015ZM16.053 16.4999C16.053 15.8786 15.5817 15.3749 15.0003 15.3749C14.4189 15.3749 13.9475 15.8786 13.9475 16.4999V19.8752H10.7892C10.2078 19.8752 9.73646 20.3788 9.73646 21.0001C9.73646 21.6215 10.2078 22.1251 10.7892 22.1251H13.9475V25.4999C13.9475 26.1212 14.4189 26.6249 15.0003 26.6249C15.5817 26.6249 16.053 26.1212 16.053 25.4999V22.1251H19.2111C19.7925 22.1251 20.2639 21.6215 20.2639 21.0001C20.2639 20.3788 19.7925 19.8752 19.2111 19.8752H16.053V16.4999Z" fill="#809FB8"/>
</svg>
