<svg width="16" height="16" viewBox="0 0 16 16" fill="none" xmlns="http://www.w3.org/2000/svg">
<path d="M7.82979 10H6.46808C6.28751 10 6.11433 10.0702 5.98665 10.1953C5.85897 10.3203 5.78723 10.4899 5.78723 10.6667V15.3333C5.78723 15.5101 5.85897 15.6797 5.98665 15.8047C6.11433 15.9298 6.28751 16 6.46808 16C6.64866 16 6.82183 15.9298 6.94952 15.8047C7.0772 15.6797 7.14894 15.5101 7.14894 15.3333V14.6667H7.82979C8.46179 14.6667 9.06791 14.4208 9.51481 13.9833C9.9617 13.5457 10.2128 12.9522 10.2128 12.3333C10.2128 11.7145 9.9617 11.121 9.51481 10.6834C9.06791 10.2458 8.46179 10 7.82979 10ZM7.82979 13.3333H7.14894V11.3333H7.82979C8.10065 11.3333 8.36041 11.4387 8.55194 11.6262C8.74346 11.8138 8.85106 12.0681 8.85106 12.3333C8.85106 12.5986 8.74346 12.8529 8.55194 13.0404C8.36041 13.228 8.10065 13.3333 7.82979 13.3333ZM16 13.3333V14.7392C16 14.9109 15.9323 15.0759 15.8111 15.2C15.574 15.4499 15.2873 15.6497 14.9686 15.7873C14.6498 15.9249 14.3058 15.9972 13.9574 16C12.4553 16 11.234 14.6542 11.234 13C11.234 11.3458 12.4553 10 13.9574 10C14.458 10.0015 14.9466 10.1502 15.36 10.4267C15.5096 10.5261 15.6128 10.6797 15.6468 10.8537C15.6808 11.0276 15.6428 11.2076 15.5413 11.3542C15.4397 11.5007 15.2828 11.6017 15.1052 11.635C14.9276 11.6683 14.7437 11.6311 14.594 11.5317C14.4073 11.4039 14.1853 11.3348 13.9574 11.3333C13.2068 11.3333 12.5957 12.0833 12.5957 13C12.5957 13.9167 13.2068 14.6667 13.9574 14.6667C14.2031 14.6639 14.4415 14.5848 14.6383 14.4408V14C14.4577 14 14.2845 13.9298 14.1569 13.8047C14.0292 13.6797 13.9574 13.5101 13.9574 13.3333C13.9574 13.1565 14.0292 12.987 14.1569 12.8619C14.2845 12.7369 14.4577 12.6667 14.6383 12.6667H15.3191C15.4997 12.6667 15.6729 12.7369 15.8006 12.8619C15.9283 12.987 16 13.1565 16 13.3333ZM4.42553 10.6667V13.8333C4.42553 14.408 4.1924 14.9591 3.77743 15.3654C3.36245 15.7717 2.79963 16 2.21277 16C1.6259 16 1.06308 15.7717 0.648104 15.3654C0.23313 14.9591 0 14.408 0 13.8333C0 13.6565 0.0717323 13.487 0.199417 13.3619C0.327101 13.2369 0.500278 13.1667 0.680851 13.1667C0.861424 13.1667 1.0346 13.2369 1.16229 13.3619C1.28997 13.487 1.3617 13.6565 1.3617 13.8333C1.3617 14.0543 1.45137 14.2663 1.61097 14.4226C1.77058 14.5789 1.98705 14.6667 2.21277 14.6667C2.43848 14.6667 2.65495 14.5789 2.81456 14.4226C2.97416 14.2663 3.06383 14.0543 3.06383 13.8333V10.6667C3.06383 10.4899 3.13556 10.3203 3.26325 10.1953C3.39093 10.0702 3.56411 10 3.74468 10C3.92525 10 4.09843 10.0702 4.22611 10.1953C4.3538 10.3203 4.42553 10.4899 4.42553 10.6667ZM15.8009 4.86167L11.0349 0.195C10.9716 0.133111 10.8965 0.0840347 10.8139 0.0505759C10.7312 0.0171172 10.6426 -6.86572e-05 10.5532 2.06132e-07H2.38298C2.02183 2.06132e-07 1.67548 0.140476 1.42011 0.390524C1.16474 0.640573 1.02128 0.979712 1.02128 1.33333V7.33333C1.02128 7.51014 1.09301 7.67971 1.22069 7.80474C1.34838 7.92976 1.52155 8 1.70213 8C1.8827 8 2.05588 7.92976 2.18356 7.80474C2.31125 7.67971 2.38298 7.51014 2.38298 7.33333V1.33333H9.87234V5.33333C9.87234 5.51014 9.94407 5.67971 10.0718 5.80474C10.1994 5.92976 10.3726 6 10.5532 6H14.6383V7.33333C14.6383 7.51014 14.71 7.67971 14.8377 7.80474C14.9654 7.92976 15.1386 8 15.3191 8C15.4997 8 15.6729 7.92976 15.8006 7.80474C15.9283 7.67971 16 7.51014 16 7.33333V5.33333C16.0001 5.24576 15.9825 5.15903 15.9483 5.0781C15.9142 4.99717 15.8641 4.92363 15.8009 4.86167ZM11.234 4.66667V2.27583L13.6757 4.66667H11.234Z" fill="white"/>
</svg>
