<svg width="30" height="30" viewBox="0 0 30 30" fill="none" xmlns="http://www.w3.org/2000/svg">
<path fill-rule="evenodd" clip-rule="evenodd" d="M25.3028 0.711451C28.0375 1.95267 29.9502 4.68778 29.999 7.875H20.186L25.3028 0.711451ZM22 0C22.3392 0 22.6735 0.0211114 23.0016 0.0620921L17.4209 7.875H8.18609L13.8111 0H22ZM8 0H11.0461L5.42106 7.875H0.000956753C0.0677515 3.51436 3.62346 0 8 0ZM0 22V10.125H30V22C30 26.4183 26.4183 30 22 30H8C3.58172 30 0 26.4183 0 22ZM12.0001 16.3028V22.6972C12.0001 23.8953 13.3353 24.6099 14.3321 23.9453L19.1279 20.7481C20.0185 20.1543 20.0185 18.8457 19.1279 18.2519L14.3321 15.0547C13.3353 14.3901 12.0001 15.1047 12.0001 16.3028Z" fill="#809FB8"/>
</svg>
