<svg width="35" height="35" viewBox="0 0 35 35" fill="none" xmlns="http://www.w3.org/2000/svg">
<path d="M10.9918 31.8501C8.92363 30.6943 7.1515 29.0748 5.81461 27.1187C4.47771 25.1626 3.61246 22.9233 3.28679 20.5765C2.96111 18.2297 3.18389 15.8394 3.93761 13.5932C4.69134 11.347 5.9555 9.30615 7.63083 7.63083C9.30615 5.9555 11.347 4.69134 13.5932 3.93761C15.8394 3.18389 18.2297 2.96111 20.5765 3.28679C22.9233 3.61246 25.1626 4.47771 27.1187 5.81461C29.0748 7.1515 30.6943 8.92363 31.8501 10.9918C26.0138 7.7246 18.4923 8.5646 13.5293 13.5276C8.5646 18.4923 7.72285 26.0121 10.9918 31.8501Z" fill="#979797"/>
</svg>
