<svg width="16" height="16" viewBox="0 0 16 16" fill="none" xmlns="http://www.w3.org/2000/svg">
<path d="M2.04255 10H0.680851C0.500278 10 0.327101 10.0702 0.199417 10.1953C0.0717324 10.3203 0 10.4899 0 10.6667V15.3333C0 15.5101 0.0717324 15.6797 0.199417 15.8047C0.327101 15.9298 0.500278 16 0.680851 16C0.861424 16 1.0346 15.9298 1.16229 15.8047C1.28997 15.6797 1.3617 15.5101 1.3617 15.3333V14.6667H2.04255C2.67456 14.6667 3.28068 14.4208 3.72757 13.9832C4.17447 13.5457 4.42553 12.9522 4.42553 12.3333C4.42553 11.7145 4.17447 11.121 3.72757 10.6834C3.28068 10.2458 2.67456 10 2.04255 10ZM2.04255 13.3333H1.3617V11.3333H2.04255C2.31341 11.3333 2.57318 11.4387 2.7647 11.6262C2.95623 11.8138 3.06383 12.0681 3.06383 12.3333C3.06383 12.5985 2.95623 12.8529 2.7647 13.0404C2.57318 13.228 2.31341 13.3333 2.04255 13.3333ZM16 14.7392C16 14.9109 15.9323 15.0759 15.8111 15.2C15.574 15.4499 15.2873 15.6497 14.9686 15.7873C14.6498 15.9249 14.3058 15.9972 13.9574 16C12.4553 16 11.234 14.6542 11.234 13C11.234 11.3458 12.4553 10 13.9574 10C14.4579 10.0017 14.9464 10.15 15.36 10.4258C15.5098 10.5253 15.613 10.6789 15.6471 10.8529C15.6812 11.027 15.6433 11.2071 15.5417 11.3537C15.4401 11.5004 15.2832 11.6015 15.1055 11.6349C14.9278 11.6683 14.7438 11.6311 14.594 11.5317C14.4073 11.4039 14.1853 11.3348 13.9574 11.3333C13.2068 11.3333 12.5957 12.0833 12.5957 13C12.5957 13.9167 13.2068 14.6667 13.9574 14.6667C14.2032 14.664 14.4418 14.5846 14.6383 14.44V14C14.4577 14 14.2845 13.9298 14.1569 13.8047C14.0292 13.6797 13.9574 13.5101 13.9574 13.3333C13.9574 13.1565 14.0292 12.987 14.1569 12.8619C14.2845 12.7369 14.4577 12.6667 14.6383 12.6667H15.3191C15.4997 12.6667 15.6729 12.7369 15.8006 12.8619C15.9283 12.987 16 13.1565 16 13.3333V14.7392ZM10.2128 10.6667V15.3333C10.2128 15.4746 10.167 15.6123 10.0819 15.7264C9.99687 15.8405 9.87699 15.9252 9.73957 15.9683C9.67247 15.9895 9.6024 16.0002 9.53191 16C9.42354 16 9.31673 15.9747 9.22037 15.9261C9.124 15.8776 9.04087 15.8072 8.97787 15.7208L6.80851 12.75V15.3333C6.80851 15.5101 6.73678 15.6797 6.60909 15.8047C6.48141 15.9298 6.30823 16 6.12766 16C5.94709 16 5.77391 15.9298 5.64623 15.8047C5.51854 15.6797 5.44681 15.5101 5.44681 15.3333V10.6667C5.4468 10.5254 5.49262 10.3878 5.57764 10.2737C5.66266 10.1596 5.7825 10.0749 5.91988 10.0318C6.05725 9.98867 6.20506 9.9894 6.34198 10.0339C6.4789 10.0783 6.59786 10.1642 6.6817 10.2792L8.85106 13.25V10.6667C8.85106 10.4899 8.9228 10.3203 9.05048 10.1953C9.17816 10.0702 9.35134 10 9.53191 10C9.71249 10 9.88567 10.0702 10.0133 10.1953C10.141 10.3203 10.2128 10.4899 10.2128 10.6667ZM1.02128 8C1.20185 8 1.37503 7.92976 1.50271 7.80474C1.6304 7.67971 1.70213 7.51014 1.70213 7.33333V1.33333H9.19149V5.33333C9.19149 5.51014 9.26322 5.67971 9.39091 5.80474C9.51859 5.92976 9.69177 6 9.87234 6H13.9574V7.33333C13.9574 7.51014 14.0292 7.67971 14.1569 7.80474C14.2845 7.92976 14.4577 8 14.6383 8C14.8189 8 14.992 7.92976 15.1197 7.80474C15.2474 7.67971 15.3191 7.51014 15.3191 7.33333V5.33333C15.3192 5.24576 15.3017 5.15903 15.2675 5.0781C15.2333 4.99717 15.1832 4.92362 15.12 4.86167L10.354 0.195C10.2908 0.133111 10.2157 0.0840347 10.133 0.0505759C10.0504 0.0171172 9.96178 -6.86572e-05 9.87234 2.06132e-07H1.70213C1.34098 2.06132e-07 0.994627 0.140476 0.739259 0.390524C0.48389 0.640573 0.340426 0.979711 0.340426 1.33333V7.33333C0.340426 7.51014 0.412158 7.67971 0.539842 7.80474C0.667527 7.92976 0.840704 8 1.02128 8ZM10.5532 2.27583L12.9949 4.66667H10.5532V2.27583Z" fill="white"/>
</svg>
