<svg width="16" height="16" viewBox="0 0 16 16" fill="none" xmlns="http://www.w3.org/2000/svg">
<path d="M4.60398 14.359C4.57626 14.614 4.48861 14.86 4.34734 15.0795C4.20607 15.2989 4.01468 15.4863 3.78693 15.6281C3.32551 15.9165 2.75295 15.9998 2.23196 15.9998C1.77762 15.9971 1.32542 15.9411 0.885917 15.8331C0.706398 15.7839 0.554819 15.6703 0.46401 15.517C0.373201 15.3637 0.350474 15.1831 0.40075 15.0142C0.451026 14.8453 0.570259 14.7018 0.732623 14.6147C0.894986 14.5276 1.08741 14.504 1.26821 14.549C1.65762 14.649 2.59736 14.774 3.00633 14.519C3.08457 14.4698 3.16903 14.3923 3.19659 14.1915C3.22771 13.969 3.13347 13.8498 2.06037 13.559C1.2291 13.334 -0.16229 12.9565 0.015523 11.6332C0.0431979 11.3832 0.129231 11.142 0.267516 10.9267C0.405802 10.7114 0.59295 10.5273 0.81568 10.3874C1.86833 9.72072 3.54688 10.1115 3.73448 10.1574C3.91698 10.2024 4.07295 10.3134 4.16807 10.4662C4.26319 10.619 4.28967 10.8009 4.24169 10.972C4.1937 11.143 4.07519 11.2892 3.9122 11.3784C3.74922 11.4675 3.55513 11.4923 3.37263 11.4474C2.97433 11.3499 2.01858 11.234 1.60961 11.494C1.55601 11.5279 1.51187 11.5734 1.48093 11.6266C1.44998 11.6798 1.43314 11.7393 1.4318 11.7999C1.42202 11.8749 1.41935 11.8907 1.53138 11.9582C1.73675 12.0824 2.10393 12.1815 2.46045 12.2782C3.33084 12.514 4.80313 12.9165 4.60398 14.359ZM16 5.33327V7.33325C16 7.51005 15.9251 7.67962 15.7917 7.80464C15.6583 7.92967 15.4774 7.9999 15.2887 7.9999C15.1001 7.9999 14.9192 7.92967 14.7858 7.80464C14.6524 7.67962 14.5775 7.51005 14.5775 7.33325V5.99993H10.31C10.1214 5.99993 9.94045 5.92969 9.80706 5.80467C9.67368 5.67965 9.59874 5.51008 9.59874 5.33327V1.33332H1.77498V7.33325C1.77498 7.51005 1.70005 7.67962 1.56666 7.80464C1.43327 7.92967 1.25236 7.9999 1.06373 7.9999C0.875094 7.9999 0.694184 7.92967 0.560799 7.80464C0.427414 7.67962 0.352478 7.51005 0.352478 7.33325V1.33332C0.352478 0.9797 0.502349 0.640565 0.769119 0.39052C1.03589 0.140474 1.39771 0 1.77498 0H10.31C10.4984 8.18331e-05 10.679 0.0702109 10.8123 0.194998L15.7911 4.86161C15.8573 4.9235 15.9098 4.99701 15.9456 5.07794C15.9815 5.15888 16 5.24564 16 5.33327ZM11.0212 4.66661H13.572L11.0212 2.27581V4.66661ZM9.83879 10.039C9.75082 10.0095 9.6575 9.99654 9.56417 10.0008C9.47085 10.0051 9.37934 10.0266 9.29487 10.0641C9.21041 10.1015 9.13465 10.1542 9.07192 10.2191C9.00919 10.284 8.96072 10.3599 8.92928 10.4424L7.82061 13.3507L6.71195 10.4424C6.68273 10.3574 6.63558 10.2787 6.57331 10.2111C6.51104 10.1435 6.43491 10.0884 6.34945 10.0489C6.26399 10.0094 6.17093 9.98641 6.07581 9.98128C5.98068 9.97616 5.88543 9.989 5.7957 10.019C5.70598 10.0491 5.6236 10.0957 5.55348 10.1562C5.48335 10.2166 5.4269 10.2897 5.38747 10.371C5.34805 10.4523 5.32645 10.5402 5.32397 10.6295C5.32149 10.7188 5.33817 10.8076 5.37302 10.8907L7.15115 15.5573C7.20045 15.6869 7.29129 15.7989 7.41123 15.8782C7.53116 15.9575 7.67431 16 7.82106 16C7.9678 16 8.11095 15.9575 8.23089 15.8782C8.35082 15.7989 8.44167 15.6869 8.49097 15.5573L10.2691 10.8907C10.3324 10.7243 10.3227 10.5411 10.242 10.3814C10.1613 10.2217 10.0163 10.0986 9.83879 10.039ZM15.2887 12.6665H14.5775C14.3889 12.6665 14.208 12.7368 14.0746 12.8618C13.9412 12.9868 13.8662 13.1564 13.8662 13.3332C13.8662 13.51 13.9412 13.6796 14.0746 13.8046C14.208 13.9296 14.3889 13.9998 14.5775 13.9998V14.4407C14.3726 14.5859 14.1231 14.6652 13.8662 14.6665C13.0821 14.6665 12.4437 13.9165 12.4437 12.9998C12.4437 12.0832 13.0821 11.3332 13.8662 11.3332C14.1057 11.3341 14.3392 11.4033 14.5357 11.5315C14.6921 11.627 14.8822 11.661 15.0651 11.6263C15.248 11.5915 15.409 11.4908 15.5134 11.3458C15.6178 11.2009 15.6572 11.0233 15.6231 10.8513C15.5891 10.6793 15.4843 10.5268 15.3314 10.4265C14.8996 10.1501 14.3892 10.0014 13.8662 9.99988C12.2979 9.99988 11.0212 11.3457 11.0212 12.9998C11.0212 14.654 12.2979 15.9998 13.8662 15.9998C14.2301 15.997 14.5895 15.9247 14.9225 15.7871C15.2555 15.6495 15.555 15.4497 15.8026 15.1998C15.9293 15.0758 16 14.9107 16 14.739V13.3332C16 13.1564 15.9251 12.9868 15.7917 12.8618C15.6583 12.7368 15.4774 12.6665 15.2887 12.6665Z" fill="white"/>
</svg>
