<svg width="56" height="97" viewBox="0 0 56 97" fill="none" xmlns="http://www.w3.org/2000/svg">
<path fill-rule="evenodd" clip-rule="evenodd" d="M27.7119 65.097L27.3491 64.7341C36.53 55.6885 38.0861 40.6198 37.775 29.5718C37.5416 22.138 36.5653 14.7457 34.8605 7.50372L35.359 7.37646C37.0729 14.6554 38.0546 22.0855 38.2896 29.5572C38.6037 40.7065 37.0232 55.9226 27.7119 65.097ZM24.2861 96.7658L24.7426 97C30.7545 85.4491 27.5623 70.5114 23.8254 60.0142C21.2979 52.987 18.0742 46.2266 14.2018 39.8327L13.7677 40.1054C17.62 46.467 20.827 53.1931 23.3413 60.1847C27.0441 70.5866 30.214 85.3769 24.2861 96.7658ZM29.135 39.8452L25.7898 57.9857L26.2969 58.0775L29.6421 39.937L29.135 39.8452ZM6.51367 55.6491L6.8913 55.3009L24.1657 73.6958L23.7881 74.044L6.51367 55.6491ZM37.9465 75.5071L29.1844 87.5178L29.6024 87.8172L38.3645 75.8065L37.9465 75.5071ZM49.646 12.0254L40.8419 28.2722L41.2961 28.5138L50.1002 12.267L49.646 12.0254ZM23.2208 20.1853L23.6881 19.9688L34.4288 42.7306L33.9615 42.9471L23.2208 20.1853ZM46.9828 48.6469L34.9226 57.4118L35.2276 57.8239L47.2878 49.059L46.9828 48.6469Z" fill="#12AFF0"/>
<path fill-rule="evenodd" clip-rule="evenodd" d="M36.6512 2.58175C36.6512 4.00761 35.485 5.1635 34.0465 5.1635C32.608 5.1635 31.4419 4.00761 31.4419 2.58175C31.4419 1.15589 32.608 0 34.0465 0C35.485 0 36.6512 1.15589 36.6512 2.58175ZM56 5.53232C56 6.95818 54.8339 8.11407 53.3954 8.11407C51.9568 8.11407 50.7907 6.95818 50.7907 5.53232C50.7907 4.10646 51.9568 2.95057 53.3954 2.95057C54.8339 2.95057 56 4.10646 56 5.53232ZM47.4419 35.5913C48.8804 35.5913 50.0465 34.4354 50.0465 33.0095C50.0465 31.5836 48.8804 30.4278 47.4419 30.4278C46.0033 30.4278 44.8372 31.5836 44.8372 33.0095C44.8372 34.4354 46.0033 35.5913 47.4419 35.5913ZM11.3488 38.173C12.7873 38.173 13.9535 37.0171 13.9535 35.5913C13.9535 34.1654 12.7873 33.0095 11.3488 33.0095C9.91033 33.0095 8.74419 34.1654 8.74419 35.5913C8.74419 37.0171 9.91033 38.173 11.3488 38.173ZM5.2093 52.1882C5.2093 53.6141 4.04316 54.77 2.60465 54.77C1.16614 54.77 0 53.6141 0 52.1882C0 50.7624 1.16614 49.6065 2.60465 49.6065C4.04316 49.6065 5.2093 50.7624 5.2093 52.1882ZM11.3488 64.7281C11.3488 66.154 10.1827 67.3099 8.74419 67.3099C7.30568 67.3099 6.13953 66.154 6.13953 64.7281C6.13953 63.3023 7.30568 62.1464 8.74419 62.1464C10.1827 62.1464 11.3488 63.3023 11.3488 64.7281ZM42.7907 73.5798C44.2292 73.5798 45.3953 72.424 45.3953 70.9981C45.3953 69.5722 44.2292 68.4164 42.7907 68.4164C41.3522 68.4164 40.186 69.5722 40.186 70.9981C40.186 72.424 41.3522 73.5798 42.7907 73.5798ZM34.7907 69.8916C34.7907 71.3175 33.6246 72.4734 32.186 72.4734C30.7475 72.4734 29.5814 71.3175 29.5814 69.8916C29.5814 68.4658 30.7475 67.3099 32.186 67.3099C33.6246 67.3099 34.7907 68.4658 34.7907 69.8916ZM26.0465 37.2509C26.0465 38.6768 24.8804 39.8327 23.4419 39.8327C22.0034 39.8327 20.8372 38.6768 20.8372 37.2509C20.8372 35.8251 22.0034 34.6692 23.4419 34.6692C24.8804 34.6692 26.0465 35.8251 26.0465 37.2509ZM20.6512 18.2567C22.0897 18.2567 23.2558 17.1008 23.2558 15.6749C23.2558 14.249 22.0897 13.0932 20.6512 13.0932C19.2127 13.0932 18.0465 14.249 18.0465 15.6749C18.0465 17.1008 19.2127 18.2567 20.6512 18.2567ZM53.9535 45.365C53.9535 46.7909 52.7873 47.9468 51.3488 47.9468C49.9103 47.9468 48.7442 46.7909 48.7442 45.365C48.7442 43.9392 49.9103 42.7833 51.3488 42.7833C52.7873 42.7833 53.9535 43.9392 53.9535 45.365ZM47.2558 60.4867C48.6943 60.4867 49.8605 59.3308 49.8605 57.9049C49.8605 56.4791 48.6943 55.3232 47.2558 55.3232C45.8173 55.3232 44.6512 56.4791 44.6512 57.9049C44.6512 59.3308 45.8173 60.4867 47.2558 60.4867Z" fill="#12AFF0"/>
</svg>
